<?xml version="1.0" encoding="UTF-8" standalone="no"?>
<!-- Created with Inkscape (http://www.inkscape.org/) -->

<svg
   width="100.38319mm"
   height="122.99782mm"
   viewBox="0 0 100.38319 122.99782"
   version="1.1"
   id="svg1"
   inkscape:version="1.3.2 (091e20e, 2023-11-25)"
   sodipodi:docname="writedocx.svg"
   xmlns:inkscape="http://www.inkscape.org/namespaces/inkscape"
   xmlns:sodipodi="http://sodipodi.sourceforge.net/DTD/sodipodi-0.dtd"
   xmlns="http://www.w3.org/2000/svg"
   xmlns:svg="http://www.w3.org/2000/svg">
  <sodipodi:namedview
     id="namedview1"
     pagecolor="#ffffff"
     bordercolor="#000000"
     borderopacity="0.25"
     inkscape:showpageshadow="2"
     inkscape:pageopacity="0.0"
     inkscape:pagecheckerboard="0"
     inkscape:deskcolor="#d1d1d1"
     inkscape:document-units="mm"
     inkscape:zoom="0.58996794"
     inkscape:cx="811.90853"
     inkscape:cy="172.89075"
     inkscape:window-width="2560"
     inkscape:window-height="1387"
     inkscape:window-x="0"
     inkscape:window-y="25"
     inkscape:window-maximized="0"
     inkscape:current-layer="layer1" />
  <defs
     id="defs1">
    <clipPath
       clipPathUnits="userSpaceOnUse"
       id="clipPath5">
      <path
         id="path6"
         style="display:inline;fill:#000000;fill-opacity:1;stroke-width:2.71301"
         d="m 49.185629,72.55216 v 96.42409 H 149.56865 V 45.978072 H 88.26464 Z M 125.03681,61.88511 c 4.28624,0 7.71251,1.329852 10.27896,3.988906 2.57968,2.659052 3.86953,6.356321 3.86953,11.092344 0,4.696339 -1.27652,8.374383 -3.82974,11.033438 -2.55322,2.645822 -5.96616,3.96875 -10.23917,3.96875 -4.32592,0 -7.76552,-1.31652 -10.31875,-3.949113 -2.55321,-2.645825 -3.82974,-6.283873 -3.82974,-10.914065 0,-2.963323 0.44329,-5.450216 1.32964,-7.461041 0.66145,-1.481664 1.56084,-2.811513 2.69854,-3.988906 1.15093,-1.177391 2.40772,-2.050108 3.77031,-2.61896 1.8124,-0.767289 3.90241,-1.151353 6.27042,-1.151353 z m -52.480514,0.077 c 2.420927,0 4.266099,0.185108 5.536094,0.555522 1.706557,0.502706 3.1687,1.395685 4.385781,2.678906 1.217078,1.283224 2.143125,2.857405 2.778125,4.72271 0.634997,1.852075 0.952394,4.14053 0.952394,6.865731 0,2.394471 -0.297656,4.45834 -0.892966,6.191353 -0.727604,2.116659 -1.766202,3.830055 -3.115572,5.139738 -1.018643,0.992187 -2.394384,1.766199 -4.127397,2.321824 -1.296453,0.410102 -3.02959,0.61495 -5.199168,0.61495 H 61.820515 V 71.215811 Z m -4.861719,4.921147 v 19.268075 h 4.38526 c 1.640411,0 2.824636,-0.09229 3.55224,-0.277503 0.952495,-0.238125 1.739326,-0.641927 2.361094,-1.210778 0.635,-0.568852 1.150837,-1.50131 1.54771,-2.797763 0.396875,-1.309682 0.595312,-3.089224 0.595312,-5.338175 0,-2.24895 -0.198437,-3.975163 -0.595312,-5.179012 C 79.144008,70.144251 78.58869,69.204869 77.874315,68.530184 77.159943,67.855499 76.253636,67.3994 75.155618,67.161275 74.335415,66.976067 72.728161,66.883256 70.33369,66.883256 Z m 57.401663,0.02273 c -2.42092,0 -4.37224,0.833236 -5.85391,2.500103 -1.48165,1.653644 -2.22208,4.153869 -2.22208,7.500837 0,3.29405 0.76068,5.794277 2.28203,7.500835 1.52135,1.693325 3.45241,2.539894 5.79396,2.539894 2.34156,0 4.2598,-0.839645 5.75469,-2.519741 1.50812,-1.693328 2.26239,-4.227145 2.26239,-7.600572 0,-3.333736 -0.73402,-5.820629 -2.20245,-7.461041 -1.4552,-1.640411 -3.3937,-2.460315 -5.81463,-2.460315 z M 74.221308,124.55932 c 3.558635,0 6.44933,1.05142 8.671825,3.15485 1.322911,1.24354 2.315104,3.02949 2.97656,5.35781 l -5.814113,1.38906 c -0.343959,-1.50812 -1.06516,-2.69875 -2.163178,-3.57187 -1.084786,-0.87312 -2.407714,-1.30948 -3.96875,-1.30948 -2.156346,0 -3.909224,0.77401 -5.258594,2.32182 -1.33614,1.5478 -2.004012,4.05444 -2.004012,7.52047 0,3.6777 0.661463,6.2974 1.984375,7.85844 1.322914,1.56103 3.042716,2.34145 5.159375,2.34145 1.561039,0 2.903704,-0.4961 4.028178,-1.48828 1.124476,-0.99218 1.931564,-2.55354 2.421043,-4.68343 l 5.694741,1.80609 c -0.873122,3.17499 -2.328339,5.53652 -4.365625,7.08432 -2.024054,1.53458 -4.596836,2.30167 -7.718909,2.30167 -3.862901,0 -7.037925,-1.31652 -9.525,-3.94911 -2.487073,-2.64583 -3.730519,-6.25721 -3.730519,-10.83448 0,-4.84186 1.249852,-8.59887 3.750156,-11.27115 2.500305,-2.68551 5.78788,-4.02818 9.862447,-4.02818 z m 38.214722,1.02526 h 6.86625 l 5.83375,9.3462 5.71541,-9.3462 h 6.80631 l -9.04906,14.12834 9.94203,14.96239 h -7.08433 l -6.44921,-10.06088 -6.46886,10.06088 h -7.04453 l 9.94151,-15.18047 z"
         sodipodi:nodetypes="ccccccscscscscccsccscscccscccccscccssscscscscscscssccccscsssscccscscsccccccccccccc" />
    </clipPath>
  </defs>
  <g
     inkscape:label="Layer 1"
     inkscape:groupmode="layer"
     id="layer1"
     transform="translate(-49.185454,-45.978249)">
    <g
       id="g2"
       clip-path="url(#clipPath5)">
      <rect
         style="fill:#4063d8;fill-opacity:1;stroke-width:2.44171"
         id="rect1"
         width="48.599998"
         height="60"
         x="49.185452"
         y="45.978249" />
      <rect
         style="fill:#389826;fill-opacity:1;stroke-width:2.44171"
         id="rect1-2"
         width="48.599998"
         height="60"
         x="100.96889"
         y="45.978249" />
      <rect
         style="fill:#cb3c33;fill-opacity:1;stroke-width:2.44171"
         id="rect2"
         width="48.599998"
         height="60"
         x="100.96889"
         y="108.97607" />
      <rect
         style="fill:#9558b2;fill-opacity:1;stroke-width:2.44171"
         id="rect2-9"
         width="48.599998"
         height="60"
         x="49.185452"
         y="108.97607" />
    </g>
    <path
       id="rect4"
       style="display:inline;fill:#b8c1de;fill-opacity:1;stroke-width:2.71301"
       d="M 88.262491,45.978249 73.485451,82.040655 49.185454,72.551469 Z"
       sodipodi:nodetypes="cccc" />
  </g>
</svg>
